mtllib rock.mtl
o rock
v 0.000 0.000 0.164
v 0.000 0.000 0.139
v 0.000 0.000 0.157
v -0.000 0.000 0.165
v -0.000 0.000 0.154
v -0.000 0.000 0.149
v -0.000 -0.000 0.160
v -0.000 -0.000 0.158
v 0.000 -0.000 0.145
v 0.000 -0.000 0.150
v 0.111 0.000 0.143
v 0.069 0.042 0.111
v 0.033 0.085 0.139
v -0.034 0.087 0.143
v -0.079 0.048 0.127
v -0.102 0.000 0.132
v -0.074 -0.045 0.119
v -0.033 -0.085 0.139
v 0.037 -0.094 0.154
v 0.076 -0.046 0.122
v 0.181 0.000 0.090
v 0.169 0.102 0.104
v 0.058 0.148 0.093
v -0.055 0.141 0.089
v -0.157 0.095 0.097
v -0.152 0.000 0.076
v -0.130 -0.078 0.080
v -0.064 -0.164 0.103
v 0.050 -0.127 0.080
v 0.123 -0.074 0.076
v 0.263 0.000 0.038
v 0.201 0.122 0.035
v 0.083 0.212 0.038
v -0.077 0.198 0.036
v -0.213 0.129 0.037
v -0.215 0.000 0.031
v -0.201 -0.122 0.036
v -0.062 -0.159 0.029
v 0.079 -0.202 0.036
v 0.200 -0.121 0.035
v 0.203 0.000 -0.029
v 0.164 0.099 -0.029
v 0.062 0.159 -0.029
v -0.079 0.202 -0.036
v -0.195 0.118 -0.034
v -0.210 0.000 -0.030
v -0.195 -0.118 -0.034
v -0.075 -0.193 -0.035
v 0.075 -0.193 -0.035
v 0.217 -0.132 -0.038
v 0.206 0.000 -0.102
v 0.144 0.087 -0.089
v 0.047 0.121 -0.076
v -0.051 0.131 -0.082
v -0.125 0.076 -0.077
v -0.202 0.000 -0.100
v -0.164 -0.099 -0.101
v -0.051 -0.130 -0.082
v 0.066 -0.168 -0.106
v 0.139 -0.084 -0.085
v 0.100 0.000 -0.130
v 0.085 0.051 -0.136
v 0.037 0.095 -0.155
v -0.036 0.092 -0.151
v -0.072 0.043 -0.115
v -0.116 0.000 -0.150
v -0.073 -0.044 -0.118
v -0.035 -0.089 -0.146
v 0.033 -0.085 -0.140
v 0.072 -0.044 -0.115
v 0.000 0.000 -0.123
v 0.000 0.000 -0.169
v 0.000 0.000 -0.120
v -0.000 0.000 -0.128
v -0.000 0.000 -0.171
v -0.000 0.000 -0.157
v -0.000 -0.000 -0.150
v -0.000 -0.000 -0.144
v 0.000 -0.000 -0.150
v 0.000 -0.000 -0.144
vt 0.0000 0.0000
vt 0.1000 0.0000
vt 0.2000 0.0000
vt 0.3000 0.0000
vt 0.4000 0.0000
vt 0.5000 0.0000
vt 0.6000 0.0000
vt 0.7000 0.0000
vt 0.8000 0.0000
vt 0.9000 0.0000
vt 0.0000 0.1429
vt 0.1000 0.1429
vt 0.2000 0.1429
vt 0.3000 0.1429
vt 0.4000 0.1429
vt 0.5000 0.1429
vt 0.6000 0.1429
vt 0.7000 0.1429
vt 0.8000 0.1429
vt 0.9000 0.1429
vt 0.0000 0.2857
vt 0.1000 0.2857
vt 0.2000 0.2857
vt 0.3000 0.2857
vt 0.4000 0.2857
vt 0.5000 0.2857
vt 0.6000 0.2857
vt 0.7000 0.2857
vt 0.8000 0.2857
vt 0.9000 0.2857
vt 0.0000 0.4286
vt 0.1000 0.4286
vt 0.2000 0.4286
vt 0.3000 0.4286
vt 0.4000 0.4286
vt 0.5000 0.4286
vt 0.6000 0.4286
vt 0.7000 0.4286
vt 0.8000 0.4286
vt 0.9000 0.4286
vt 0.0000 0.5714
vt 0.1000 0.5714
vt 0.2000 0.5714
vt 0.3000 0.5714
vt 0.4000 0.5714
vt 0.5000 0.5714
vt 0.6000 0.5714
vt 0.7000 0.5714
vt 0.8000 0.5714
vt 0.9000 0.5714
vt 0.0000 0.7143
vt 0.1000 0.7143
vt 0.2000 0.7143
vt 0.3000 0.7143
vt 0.4000 0.7143
vt 0.5000 0.7143
vt 0.6000 0.7143
vt 0.7000 0.7143
vt 0.8000 0.7143
vt 0.9000 0.7143
vt 0.0000 0.8571
vt 0.1000 0.8571
vt 0.2000 0.8571
vt 0.3000 0.8571
vt 0.4000 0.8571
vt 0.5000 0.8571
vt 0.6000 0.8571
vt 0.7000 0.8571
vt 0.8000 0.8571
vt 0.9000 0.8571
vt 0.0000 1.0000
vt 0.1000 1.0000
vt 0.2000 1.0000
vt 0.3000 1.0000
vt 0.4000 1.0000
vt 0.5000 1.0000
vt 0.6000 1.0000
vt 0.7000 1.0000
vt 0.8000 1.0000
vt 0.9000 1.0000
vn 0.3661 0.2320 0.9012
vn 0.6647 -0.4345 0.6078
vn 0.4140 0.1202 0.9023
vn -0.1772 0.2937 0.9393
vn -0.0884 0.4421 0.8926
vn -0.2632 -0.0992 0.9596
vn -0.5556 0.1204 0.8227
vn -0.4158 -0.1729 0.8929
vn 0.1871 0.1145 0.9756
vn 0.0075 -0.6608 0.7506
vn 0.2675 0.0061 0.9635
vn 0.1855 0.2559 0.9487
vn 0.2872 0.3540 0.8900
vn -0.1650 0.3931 0.9046
vn -0.4101 0.0826 0.9083
vn -0.4675 -0.0751 0.8808
vn -0.4430 -0.1841 0.8774
vn -0.1818 -0.4144 0.8918
vn 0.2449 -0.4553 0.8560
vn 0.4266 -0.3204 0.8458
vn 0.6212 -0.1619 0.7668
vn 0.3733 0.3949 0.8395
vn 0.0550 0.5336 0.8439
vn -0.1691 0.6543 0.7370
vn -0.4983 0.1956 0.8446
vn -0.5822 -0.0924 0.8077
vn -0.5343 -0.4158 0.7360
vn -0.2539 -0.6720 0.6957
vn 0.2931 -0.5297 0.7959
vn 0.4531 -0.3969 0.7982
vn 0.9709 -0.0274 0.2377
vn 0.7787 0.6273 0.0043
vn 0.2766 0.9505 0.1414
vn -0.2871 0.8665 0.4082
vn -0.7636 0.5297 0.3693
vn -0.9060 -0.0834 0.4150
vn -0.5794 -0.5716 0.5810
vn -0.2861 -0.9105 0.2986
vn 0.2051 -0.9046 0.3738
vn 0.6843 -0.4525 0.5717
vn 0.9523 0.1510 -0.2651
vn 0.6217 0.5629 -0.5446
vn 0.3246 0.6825 -0.6549
vn -0.1403 0.7887 -0.5986
vn -0.6578 0.5820 -0.4781
vn -0.9797 -0.0479 -0.1946
vn -0.7373 -0.5382 -0.4083
vn -0.2765 -0.9325 -0.2324
vn 0.1903 -0.9417 -0.2775
vn 0.7257 -0.5848 -0.3625
vn 0.6521 0.0222 -0.7578
vn 0.5892 0.6515 -0.4779
vn 0.2007 0.8667 -0.4567
vn -0.1430 0.6381 -0.7565
vn -0.2998 0.4893 -0.8190
vn -0.6209 0.0851 -0.7793
vn -0.5281 -0.4335 -0.7302
vn -0.2390 -0.6717 -0.7012
vn 0.1478 -0.5872 -0.7958
vn 0.3454 -0.4198 -0.8393
vn 0.2137 -0.0785 -0.9737
vn 0.2523 0.2110 -0.9444
vn 0.1612 0.4295 -0.8886
vn -0.4994 0.4123 -0.7619
vn -0.4658 0.3998 -0.7895
vn -0.2631 0.1671 -0.9502
vn -0.2538 -0.2046 -0.9454
vn -0.1599 -0.3596 -0.9193
vn 0.1423 -0.3320 -0.9325
vn 0.3677 -0.0799 -0.9265
vn 0.0936 0.7417 -0.6642
vn -0.0498 0.8622 -0.5041
vn -0.4054 0.2816 -0.8697
vn -0.5616 -0.3441 -0.7525
vn -0.8321 -0.2934 -0.4707
vn -0.1582 0.4438 -0.8821
vn 0.0407 -0.6950 -0.7178
vn -0.3063 0.0820 -0.9484
vn 0.2616 -0.0826 -0.9616
vn 0.5765 0.3703 -0.7284
usemtl rock
f 1/1/1 2/2/2 12/12/12
f 1/1/1 11/11/11 12/12/12
f 2/2/2 13/13/13 3/3/3
f 2/2/2 12/12/12 13/13/13
f 3/3/3 14/14/14 4/4/4
f 3/3/3 13/13/13 14/14/14
f 4/4/4 5/5/5 15/15/15
f 4/4/4 14/14/14 15/15/15
f 5/5/5 6/6/6 16/16/16
f 5/5/5 15/15/15 16/16/16
f 6/6/6 17/17/17 7/7/7
f 6/6/6 16/16/16 17/17/17
f 7/7/7 8/8/8 18/18/18
f 7/7/7 17/17/17 18/18/18
f 8/8/8 9/9/9 19/19/19
f 8/8/8 18/18/18 19/19/19
f 9/9/9 20/20/20 10/10/10
f 9/9/9 19/19/19 20/20/20
f 10/10/10 11/11/11 1/1/1
f 10/10/10 20/20/20 11/11/11
f 11/11/11 22/22/22 12/12/12
f 11/11/11 21/21/21 22/22/22
f 12/12/12 23/23/23 13/13/13
f 12/12/12 22/22/22 23/23/23
f 13/13/13 24/24/24 14/14/14
f 13/13/13 23/23/23 24/24/24
f 14/14/14 25/25/25 15/15/15
f 14/14/14 24/24/24 25/25/25
f 15/15/15 26/26/26 16/16/16
f 15/15/15 25/25/25 26/26/26
f 16/16/16 27/27/27 17/17/17
f 16/16/16 26/26/26 27/27/27
f 17/17/17 28/28/28 18/18/18
f 17/17/17 27/27/27 28/28/28
f 18/18/18 29/29/29 19/19/19
f 18/18/18 28/28/28 29/29/29
f 19/19/19 30/30/30 20/20/20
f 19/19/19 29/29/29 30/30/30
f 20/20/20 21/21/21 11/11/11
f 20/20/20 30/30/30 21/21/21
f 21/21/21 32/32/32 22/22/22
f 21/21/21 31/31/31 32/32/32
f 22/22/22 33/33/33 23/23/23
f 22/22/22 32/32/32 33/33/33
f 23/23/23 34/34/34 24/24/24
f 23/23/23 33/33/33 34/34/34
f 24/24/24 35/35/35 25/25/25
f 24/24/24 34/34/34 35/35/35
f 25/25/25 36/36/36 26/26/26
f 25/25/25 35/35/35 36/36/36
f 26/26/26 37/37/37 27/27/27
f 26/26/26 36/36/36 37/37/37
f 27/27/27 38/38/38 28/28/28
f 27/27/27 37/37/37 38/38/38
f 28/28/28 39/39/39 29/29/29
f 28/28/28 38/38/38 39/39/39
f 29/29/29 40/40/40 30/30/30
f 29/29/29 39/39/39 40/40/40
f 30/30/30 31/31/31 21/21/21
f 30/30/30 40/40/40 31/31/31
f 31/31/31 42/42/42 32/32/32
f 31/31/31 41/41/41 42/42/42
f 32/32/32 43/43/43 33/33/33
f 32/32/32 42/42/42 43/43/43
f 33/33/33 44/44/44 34/34/34
f 33/33/33 43/43/43 44/44/44
f 34/34/34 45/45/45 35/35/35
f 34/34/34 44/44/44 45/45/45
f 35/35/35 46/46/46 36/36/36
f 35/35/35 45/45/45 46/46/46
f 36/36/36 47/47/47 37/37/37
f 36/36/36 46/46/46 47/47/47
f 37/37/37 48/48/48 38/38/38
f 37/37/37 47/47/47 48/48/48
f 38/38/38 49/49/49 39/39/39
f 38/38/38 48/48/48 49/49/49
f 39/39/39 50/50/50 40/40/40
f 39/39/39 49/49/49 50/50/50
f 40/40/40 41/41/41 31/31/31
f 40/40/40 50/50/50 41/41/41
f 41/41/41 52/52/52 42/42/42
f 41/41/41 51/51/51 52/52/52
f 42/42/42 53/53/53 43/43/43
f 42/42/42 52/52/52 53/53/53
f 43/43/43 54/54/54 44/44/44
f 43/43/43 53/53/53 54/54/54
f 44/44/44 55/55/55 45/45/45
f 44/44/44 54/54/54 55/55/55
f 45/45/45 56/56/56 46/46/46
f 45/45/45 55/55/55 56/56/56
f 46/46/46 57/57/57 47/47/47
f 46/46/46 56/56/56 57/57/57
f 47/47/47 58/58/58 48/48/48
f 47/47/47 57/57/57 58/58/58
f 48/48/48 59/59/59 49/49/49
f 48/48/48 58/58/58 59/59/59
f 49/49/49 60/60/60 50/50/50
f 49/49/49 59/59/59 60/60/60
f 50/50/50 51/51/51 41/41/41
f 50/50/50 60/60/60 51/51/51
f 51/51/51 62/62/62 52/52/52
f 51/51/51 61/61/61 62/62/62
f 52/52/52 63/63/63 53/53/53
f 52/52/52 62/62/62 63/63/63
f 53/53/53 64/64/64 54/54/54
f 53/53/53 63/63/63 64/64/64
f 54/54/54 65/65/65 55/55/55
f 54/54/54 64/64/64 65/65/65
f 55/55/55 66/66/66 56/56/56
f 55/55/55 65/65/65 66/66/66
f 56/56/56 67/67/67 57/57/57
f 56/56/56 66/66/66 67/67/67
f 57/57/57 68/68/68 58/58/58
f 57/57/57 67/67/67 68/68/68
f 58/58/58 69/69/69 59/59/59
f 58/58/58 68/68/68 69/69/69
f 59/59/59 70/70/70 60/60/60
f 59/59/59 69/69/69 70/70/70
f 60/60/60 61/61/61 51/51/51
f 60/60/60 70/70/70 61/61/61
f 61/61/61 72/72/72 62/62/62
f 61/61/61 72/72/72 71/71/71
f 62/62/62 73/73/73 63/63/63
f 62/62/62 72/72/72 73/73/73
f 63/63/63 74/74/74 64/64/64
f 63/63/63 74/74/74 73/73/73
f 64/64/64 75/75/75 65/65/65
f 64/64/64 75/75/75 74/74/74
f 65/65/65 76/76/76 66/66/66
f 65/65/65 75/75/75 76/76/76
f 66/66/66 77/77/77 67/67/67
f 66/66/66 76/76/76 77/77/77
f 67/67/67 78/78/78 68/68/68
f 67/67/67 77/77/77 78/78/78
f 68/68/68 79/79/79 69/69/69
f 68/68/68 79/79/79 78/78/78
f 69/69/69 80/80/80 70/70/70
f 69/69/69 79/79/79 80/80/80
f 70/70/70 71/71/71 61/61/61
f 70/70/70 80/80/80 71/71/71
